<?xml version="1.0" encoding="UTF-8"?>
<svg width="280px" height="280px" viewBox="0 0 280 280" version="1.1" xmlns="http://www.w3.org/2000/svg" xmlns:xlink="http://www.w3.org/1999/xlink">
    <!-- Generator: Sketch 61.2 (89653) - https://sketch.com -->
    <title>Icon</title>
    <desc>Created with Sketch.</desc>
    <defs>
        <rect id="path-1" x="0" y="0" width="280" height="280" rx="64"></rect>
    </defs>
    <g id="Page-1" stroke="none" stroke-width="1" fill="none" fill-rule="evenodd">
        <g id="Artboard" transform="translate(-207.000000, -163.000000)">
            <g id="Icon" transform="translate(207.000000, 163.000000)">
                <mask id="mask-2" fill="white">
                    <use xlink:href="#path-1"></use>
                </mask>
                <use id="Rectangle" fill="#FFFFFF" xlink:href="#path-1"></use>
                <g id="logo" mask="url(#mask-2)" fill-rule="nonzero">
                    <g transform="translate(140.000000, 140.000000) scale(-1, 1) translate(-140.000000, -140.000000) translate(24.000000, 24.000000)" id="Path">
                        <path d="M116.000873,0 C180.065511,0 232,51.9351693 232,116.000524 C232,180.065354 180.065511,232 116.000873,232 C51.935013,232 0,180.065354 0,116.000524 C0,51.9351693 51.935013,0 116.000873,0 Z" fill="#FE7600"></path>
                        <path d="M116.499128,45 C155.987288,45 188,77.0114519 188,116.499215 C188,155.987327 155.987288,188 116.499128,188 C77.0114909,188 45,155.987327 45,116.499215 C45,77.0114519 77.0114909,45 116.499128,45 Z" fill="#FEA800"></path>
                        <path d="M177.313667,154.686587 C183.562111,160.935371 183.562111,171.066369 177.313667,177.313413 C171.065224,183.562196 160.934776,183.562196 154.686333,177.313413 C148.437889,171.066369 148.437889,160.935371 154.686333,154.686587 C160.934776,148.437804 171.065224,148.437804 177.313667,154.686587 Z" fill="#FFFFFF"></path>
                        <path d="M55.6863168,78.313906 C49.4378944,72.0654327 49.4378944,61.9346543 55.6863168,55.686355 C61.9347392,49.4378817 72.0652608,49.4378817 78.3136832,55.686355 C84.5621056,61.9346543 84.5621056,72.0654327 78.3136832,78.313906 C72.0652608,84.5620313 61.9347392,84.5620313 55.6863168,78.313906 Z" fill="#FFFFFF"></path>
                        <polygon fill="#FEFFFF" points="173.131752 177 56 59.8684347 59.8684235 56 177 173.13174"></polygon>
                        <path d="M116.5,89 C131.688073,89 144,101.311927 144,116.5 C144,131.688073 131.688073,144 116.5,144 C101.311927,144 89,131.688073 89,116.5 C89,101.311927 101.311927,89 116.5,89 Z" fill="#1D1E24"></path>
                    </g>
                </g>
            </g>
        </g>
    </g>
</svg>